<svg width="161" height="68" viewBox="0 0 161 68" fill="none" xmlns="http://www.w3.org/2000/svg">
<path d="M54.8111 67.0559C51.5845 67.0559 48.7391 66.4986 46.2751 65.3839C43.8698 64.2106 41.9925 62.6266 40.6431 60.6319C39.2938 58.5786 38.6191 56.1733 38.6191 53.4159C38.6191 50.8346 39.1765 48.5173 40.2911 46.4639C41.4645 44.4106 43.2538 42.6799 45.6591 41.2719C48.0645 39.8639 51.0858 38.8666 54.7231 38.2799L71.2671 35.5519V43.3839L56.6591 45.9359C54.0191 46.4053 52.0831 47.2559 50.8511 48.4879C49.6191 49.6613 49.0031 51.1866 49.0031 53.0639C49.0031 54.8826 49.6778 56.3786 51.0271 57.5519C52.4351 58.6666 54.2245 59.2239 56.3951 59.2239C59.0938 59.2239 61.4405 58.6373 63.4351 57.4639C65.4885 56.2906 67.0725 54.7359 68.1871 52.7999C69.3018 50.8053 69.8591 48.6053 69.8591 46.1999V33.9679C69.8591 31.6213 68.9791 29.7146 67.2191 28.2479C65.5178 26.7226 63.2298 25.9599 60.3551 25.9599C57.7151 25.9599 55.3978 26.6639 53.4031 28.0719C51.4671 29.4213 50.0298 31.1813 49.0911 33.3519L40.8191 29.2159C41.6991 26.8693 43.1365 24.8159 45.1311 23.0559C47.1258 21.2373 49.4431 19.8293 52.0831 18.8319C54.7818 17.8346 57.6271 17.3359 60.6191 17.3359C64.3738 17.3359 67.6885 18.0399 70.5631 19.4479C73.4965 20.8559 75.7551 22.8213 77.3391 25.3439C78.9818 27.8079 79.8031 30.6826 79.8031 33.9679V65.9999H70.2991V57.3759L72.3231 57.6399C71.2085 59.5759 69.7711 61.2479 68.0111 62.6559C66.3098 64.0639 64.3445 65.1493 62.1151 65.9119C59.9445 66.6746 57.5098 67.0559 54.8111 67.0559Z" fill="#1F211C"/>
<path d="M82.0221 65.9999V18.3919H91.5261V27.9839L90.6461 26.5759C91.7021 23.4666 93.4035 21.2373 95.7501 19.8879C98.0968 18.4799 100.913 17.7759 104.198 17.7759H107.102V26.8399H102.966C99.6808 26.8399 97.0115 27.8666 94.9581 29.9199C92.9635 31.9146 91.9661 34.7893 91.9661 38.5439V65.9999H82.0221Z" fill="#1F211C"/>
<path d="M130.465 67.0559C125.889 67.0559 121.694 65.9706 117.881 63.7999C114.126 61.6293 111.134 58.6666 108.905 54.9119C106.676 51.1573 105.561 46.9039 105.561 42.1519C105.561 37.3413 106.676 33.0879 108.905 29.3919C111.134 25.6373 114.126 22.7039 117.881 20.5919C121.636 18.4213 125.83 17.3359 130.465 17.3359C135.158 17.3359 139.353 18.4213 143.049 20.5919C146.804 22.7039 149.766 25.6373 151.937 29.3919C154.166 33.0879 155.281 37.3413 155.281 42.1519C155.281 46.9626 154.166 51.2453 151.937 54.9999C149.708 58.7546 146.716 61.7173 142.961 63.8879C139.206 65.9999 135.041 67.0559 130.465 67.0559ZM130.465 57.8159C133.281 57.8159 135.774 57.1413 137.945 55.7919C140.116 54.4426 141.817 52.5946 143.049 50.2479C144.34 47.8426 144.985 45.1439 144.985 42.1519C144.985 39.1599 144.34 36.4906 143.049 34.1439C141.817 31.7973 140.116 29.9493 137.945 28.5999C135.774 27.2506 133.281 26.5759 130.465 26.5759C127.708 26.5759 125.214 27.2506 122.985 28.5999C120.814 29.9493 119.084 31.7973 117.793 34.1439C116.561 36.4906 115.945 39.1599 115.945 42.1519C115.945 45.1439 116.561 47.8426 117.793 50.2479C119.084 52.5946 120.814 54.4426 122.985 55.7919C125.214 57.1413 127.708 57.8159 130.465 57.8159Z" fill="#1F211C"/>
<path d="M160.286 62.1126C160.286 65.0004 158.037 67.2478 155.143 67.2478C152.251 67.2478 150 65.0004 150 62.1126C150 59.2247 152.251 57 155.143 57C158.037 57 160.286 59.2473 160.286 62.1126ZM151.072 62.1126C151.072 64.4485 152.85 66.2569 155.143 66.2569C157.436 66.2569 159.193 64.4504 159.193 62.1126C159.193 59.7767 157.436 57.9908 155.143 57.9908C152.85 57.9908 151.072 59.7767 151.072 62.1126ZM156.215 62.4875C156.044 62.5534 155.958 62.6645 155.958 62.8397C155.958 62.949 156.022 63.0827 156.087 63.192L157.286 64.8667H156.001L154.522 62.7286V64.8667H153.387V59.3792H155.38C156.473 59.3792 157.266 60.0837 157.266 61.0539C157.266 61.7377 156.859 62.2652 156.217 62.4856L156.215 62.4875Z" fill="#BC5432"/>
<path d="M44.9948 0H0V67.5H12V25.5C12 22.4853 14.2922 20.8644 16.3454 22.9918L33.6673 40.9401L40.5129 33.8468L23.3313 16.0388C21.2781 13.9113 22.7303 10.2688 25.6398 10.2688H45V0H44.9948Z" fill="#BC5432"/>
</svg>
